<?xml version="1.0" encoding="UTF-8"?>
<svg id="Capa_1" xmlns="http://www.w3.org/2000/svg" version="1.1" viewBox="0 0 707.7 168.1">
  <!-- Generator: Adobe Illustrator 29.0.0, SVG Export Plug-In . SVG Version: 2.1.0 Build 186)  -->
  <defs>
    <style>
      .st0 {
        fill: #6d3628;
      }

      .st1 {
        fill: #25282a;
      }

      .st2 {
        fill: #794039;
      }
    </style>
  </defs>
  <g>
    <path class="st1" d="M170.7,61.5c-.4-2.9-3.2-5.1-6.3-5.1-5.7,0-7.9,4.9-7.9,9.9s2.1,9.7,7.9,9.7,6.1-2.6,6.6-6.5h6.2c-.6,7.2-5.6,11.8-12.7,11.8s-14.2-6.7-14.2-15,5.3-15.3,14.2-15.3,11.7,3.7,12.5,10.4h-6.2Z"/>
    <path class="st1" d="M185.6,71.7c.2,3.7,1.9,5.3,5.1,5.3s4.2-1.4,4.5-2.7h5.1c-1.6,5-5.1,7-9.8,7s-10.7-4.5-10.7-11,4.3-11.1,10.7-11.1,10.6,6,10.2,12.4h-15.1ZM194.9,68c-.5-2.9-1.8-4.5-4.6-4.5s-4.7,2.8-4.8,4.5h9.4Z"/>
    <path class="st1" d="M204.1,59.8h5.5v2.9h.1c1.5-2.4,4-3.5,6.4-3.5,6.1,0,7.7,3.4,7.7,8.6v12.9h-5.8v-11.8c0-3.4-1-5.1-3.7-5.1s-4.5,1.7-4.5,6v11h-5.8v-20.9Z"/>
    <path class="st1" d="M235.4,59.8h4.2v3.8h-4.2v10.4c0,1.9.5,2.4,2.4,2.4s1.3,0,1.8-.2v4.5c-1,.2-2.2.2-3.4.2-3.6,0-6.6-.8-6.6-5v-12.4h-3.5v-3.8h3.5v-6.3h5.8v6.3Z"/>
    <path class="st1" d="M242.3,59.8h5.5v3.9h0c1.1-2.6,3.8-4.5,6.7-4.5s.9,0,1.3.2v5.3c-.5-.1-1.4-.2-2.1-.2-4.3,0-5.7,3-5.7,6.7v9.4h-5.8v-20.9Z"/>
    <path class="st1" d="M268.3,59.2c6.6,0,10.9,4.4,10.9,11.1s-4.3,11-10.9,11-10.8-4.4-10.8-11,4.3-11.1,10.8-11.1ZM268.3,77c3.9,0,5.1-3.3,5.1-6.7s-1.2-6.7-5.1-6.7-5.1,3.4-5.1,6.7,1.2,6.7,5.1,6.7Z"/>
    <path class="st1" d="M309,78.1h0c-1.3,2.3-3.6,3.2-6.4,3.2-6.3,0-9.4-5.4-9.4-11.2s3.1-10.9,9.3-10.9,4.9,1.1,6.2,3.1h0v-10.5h5.8v28.9h-5.5v-2.7ZM304,63.6c-3.8,0-5.1,3.3-5.1,6.7s1.5,6.7,5.1,6.7,4.9-3.3,4.9-6.8-1.2-6.6-4.9-6.6Z"/>
    <path class="st1" d="M323.6,71.7c.2,3.7,1.9,5.3,5.1,5.3s4.2-1.4,4.5-2.7h5.1c-1.6,5-5.1,7-9.8,7s-10.7-4.5-10.7-11,4.3-11.1,10.7-11.1,10.6,6,10.2,12.4h-15.1ZM332.9,68c-.5-2.9-1.8-4.5-4.6-4.5s-4.7,2.8-4.8,4.5h9.4Z"/>
    <path class="st1" d="M354,51.8h6.4v28.9h-6.4v-28.9Z"/>
    <path class="st1" d="M365.3,59.8h5.5v2.9h.1c1.5-2.4,4-3.5,6.4-3.5,6.1,0,7.7,3.4,7.7,8.6v12.9h-5.8v-11.8c0-3.4-1-5.1-3.7-5.1s-4.5,1.7-4.5,6v11h-5.8v-20.9Z"/>
    <path class="st1" d="M400.9,80.7h-6.4l-7.2-20.9h6l4.4,14.3h0l4.4-14.3h5.7l-7.1,20.9Z"/>
    <path class="st1" d="M415.1,71.7c.2,3.7,1.9,5.3,5.1,5.3s4.2-1.4,4.5-2.7h5.1c-1.6,5-5.1,7-9.8,7s-10.7-4.5-10.7-11,4.3-11.1,10.7-11.1,10.6,6,10.2,12.4h-15.1ZM424.5,68c-.5-2.9-1.8-4.5-4.6-4.5s-4.7,2.8-4.8,4.5h9.4Z"/>
    <path class="st1" d="M438.1,73.9c0,2.5,2.2,3.5,4.4,3.5s3.8-.6,3.8-2.7-2.4-2.4-6.5-3.2c-3.4-.8-6.6-1.9-6.6-5.6,0-5.3,4.6-6.7,9.1-6.7s8.8,1.5,9.2,6.7h-5.5c-.2-2.2-1.9-2.8-3.9-2.8s-3.2.2-3.2,1.9,3.3,2.3,6.5,3.1c3.4.8,6.6,2,6.6,5.9,0,5.5-4.8,7.3-9.6,7.3s-9.6-1.8-9.8-7.4h5.5Z"/>
    <path class="st1" d="M462.7,59.8h4.2v3.8h-4.2v10.4c0,1.9.5,2.4,2.4,2.4s1.3,0,1.8-.2v4.5c-1,.2-2.2.2-3.4.2-3.6,0-6.6-.8-6.6-5v-12.4h-3.5v-3.8h3.5v-6.3h5.8v6.3Z"/>
    <path class="st1" d="M475.5,56.5h-5.8v-4.7h5.8v4.7ZM469.8,59.8h5.8v20.9h-5.8v-20.9Z"/>
    <path class="st1" d="M500.2,79.4c0,3.4-1.3,9.3-10.9,9.3s-8.9-2-9.2-6.7h5.7c.5,2.1,2.2,2.9,4.3,2.9,3.2,0,4.7-2.1,4.6-5.2v-2.8h0c-1.3,2.2-3.7,3.2-6.3,3.2-6.3,0-8.9-4.8-8.9-10.5s3.2-10.4,9-10.4,4.8.9,6.2,3.4h0v-2.8h5.5v19.6ZM494.7,70c0-3.4-1.2-6.4-4.9-6.4s-4.7,2.8-4.7,6,1.1,6.3,4.7,6.3,4.9-2.8,4.9-5.8Z"/>
    <path class="st1" d="M504.6,66.2c.3-5.3,5.1-7,9.8-7s9.2.9,9.2,6v10.9c0,1.9.2,3.8.7,4.7h-5.8c-.2-.6-.4-1.3-.4-2-1.8,1.9-4.5,2.6-7,2.6-4,0-7.1-2-7.1-6.3,0-9.5,14.2-4.4,13.9-9.1,0-2.4-1.7-2.8-3.7-2.8s-3.6.9-3.8,3.2h-5.8ZM517.9,70.5c-1,.9-3,.9-4.8,1.2-1.8.3-3.4,1-3.4,3.1s1.7,2.7,3.5,2.7c4.5,0,4.7-3.5,4.7-4.8v-2.1Z"/>
    <path class="st1" d="M542.3,67.2c-.4-2.4-1.8-3.6-4.3-3.6-3.7,0-4.9,3.7-4.9,6.8s1.2,6.6,4.8,6.6,4.2-1.7,4.6-4.3h5.5c-.8,5.5-4.5,8.6-10.1,8.6s-10.6-4.5-10.6-10.7,3.9-11.3,10.7-11.3,9.5,2.6,9.8,7.9h-5.6Z"/>
    <path class="st1" d="M557.2,56.5h-5.8v-4.7h5.8v4.7ZM551.5,59.8h5.8v20.9h-5.8v-20.9Z"/>
    <path class="st1" d="M571.9,59.2c6.6,0,10.9,4.4,10.9,11.1s-4.3,11-10.9,11-10.8-4.4-10.8-11,4.3-11.1,10.8-11.1ZM571.9,77c3.9,0,5.1-3.3,5.1-6.7s-1.2-6.7-5.1-6.7-5.1,3.4-5.1,6.7,1.2,6.7,5.1,6.7ZM573.8,56.9h-4l3.9-5.7h6.4l-6.2,5.7Z"/>
    <path class="st1" d="M586.5,59.8h5.5v2.9h.1c1.5-2.4,4-3.5,6.4-3.5,6.1,0,7.7,3.4,7.7,8.6v12.9h-5.8v-11.8c0-3.4-1-5.1-3.7-5.1s-4.5,1.7-4.5,6v11h-5.8v-20.9Z"/>
    <path class="st1" d="M155.5,120.3c.2,3.7,1.9,5.3,5.1,5.3s4.2-1.4,4.5-2.7h5.1c-1.6,5-5.1,7-9.8,7s-10.7-4.5-10.7-11,4.3-11.1,10.7-11.1,10.6,6,10.2,12.4h-15.1ZM164.9,116.6c-.5-2.9-1.8-4.5-4.6-4.5s-4.7,2.8-4.8,4.5h9.4Z"/>
    <path class="st1" d="M174.1,108.4h5.5v2.9h.1c1.5-2.4,4-3.5,6.4-3.5,6.1,0,7.7,3.4,7.7,8.6v12.9h-5.8v-11.8c0-3.4-1-5.1-3.7-5.1s-4.5,1.7-4.5,6v11h-5.8v-20.9Z"/>
    <path class="st1" d="M217.8,100.4h6.5l10.8,28.9h-6.6l-2.2-6.4h-10.8l-2.3,6.4h-6.4l11-28.9ZM217.2,118.1h7.5l-3.6-10.6h0l-3.8,10.6Z"/>
    <path class="st1" d="M237.2,100.4h5.8v28.9h-5.8v-28.9Z"/>
    <path class="st1" d="M253.4,105.1h-5.8v-4.7h5.8v4.7ZM247.7,108.4h5.8v20.9h-5.8v-20.9Z"/>
    <path class="st1" d="M258.1,108.4h5.4v2.8h0c1.5-2.1,3.6-3.4,6.4-3.4s5,.9,6.1,3.5c1.3-1.8,3.4-3.5,6.3-3.5,4.5,0,7.7,2.1,7.7,7.5v14h-5.7v-11.9c0-2.8-.2-5.1-3.5-5.1s-3.8,2.7-3.8,5.3v11.7h-5.8v-11.7c0-2.4.2-5.2-3.5-5.2s-3.9.7-3.9,4.8v12.1h-5.8v-20.9Z"/>
    <path class="st1" d="M299.4,120.3c.2,3.7,1.9,5.3,5.1,5.3s4.2-1.4,4.5-2.7h5.1c-1.6,5-5.1,7-9.8,7s-10.7-4.5-10.7-11,4.3-11.1,10.7-11.1,10.6,6,10.2,12.4h-15.1ZM308.8,116.6c-.5-2.9-1.8-4.5-4.6-4.5s-4.7,2.8-4.8,4.5h9.4Z"/>
    <path class="st1" d="M317.9,108.4h5.5v2.9h.1c1.5-2.4,4-3.5,6.4-3.5,6.1,0,7.7,3.4,7.7,8.6v12.9h-5.8v-11.8c0-3.4-1-5.1-3.7-5.1s-4.5,1.7-4.5,6v11h-5.8v-20.9Z"/>
    <path class="st1" d="M349.2,108.4h4.2v3.8h-4.2v10.4c0,1.9.5,2.4,2.4,2.4s1.3,0,1.8-.2v4.5c-1,.2-2.2.2-3.4.2-3.6,0-6.6-.8-6.6-5v-12.4h-3.5v-3.8h3.5v-6.3h5.8v6.3Z"/>
    <path class="st1" d="M355.9,114.8c.3-5.3,5.1-7,9.8-7s9.2.9,9.2,6v10.9c0,1.9.2,3.8.7,4.7h-5.8c-.2-.6-.4-1.3-.4-2-1.8,1.9-4.5,2.6-7,2.6-4,0-7.1-2-7.1-6.3,0-9.5,14.2-4.4,13.9-9.1,0-2.4-1.7-2.8-3.7-2.8s-3.6.9-3.8,3.2h-5.7ZM369.2,119.1c-1,.9-3,.9-4.8,1.2-1.8.3-3.4,1-3.4,3.1s1.7,2.7,3.5,2.7c4.5,0,4.7-3.5,4.7-4.8v-2.1Z"/>
    <path class="st1" d="M393.7,115.8c-.4-2.4-1.8-3.6-4.3-3.6-3.7,0-4.9,3.7-4.9,6.8s1.2,6.6,4.8,6.6,4.2-1.7,4.6-4.3h5.5c-.8,5.5-4.5,8.6-10.1,8.6s-10.6-4.5-10.6-10.7,3.9-11.3,10.7-11.3,9.5,2.6,9.8,7.9h-5.6Z"/>
    <path class="st1" d="M408.6,105.1h-5.8v-4.7h5.8v4.7ZM402.8,108.4h5.8v20.9h-5.8v-20.9Z"/>
    <path class="st1" d="M423.3,107.8c6.6,0,10.9,4.4,10.9,11.1s-4.3,11-10.9,11-10.8-4.4-10.8-11,4.3-11.1,10.8-11.1ZM423.3,125.6c3.9,0,5.1-3.3,5.1-6.7s-1.2-6.7-5.1-6.7-5.1,3.4-5.1,6.7,1.2,6.7,5.1,6.7ZM425.1,105.5h-4l3.9-5.8h6.4l-6.2,5.8Z"/>
    <path class="st1" d="M437.9,108.4h5.5v2.9h.1c1.5-2.4,4-3.5,6.4-3.5,6.1,0,7.7,3.4,7.7,8.6v12.9h-5.8v-11.8c0-3.4-1-5.1-3.7-5.1s-4.5,1.7-4.5,6v11h-5.8v-20.9Z"/>
    <path class="st1" d="M483.5,132c-1.3,3.4-3.3,4.7-7.2,4.7s-2.3,0-3.5-.2v-4.7c1.1.1,2.2.2,3.4.2,1.5-.2,2.2-1.3,2.2-2.6s0-.9-.2-1.3l-7.4-19.6h6.2l4.7,14.3h0l4.6-14.3h6l-8.7,23.6Z"/>
    <path class="st1" d="M506,100.4h12.5c7.5,0,13.1,4.7,13.1,14.3s-4.3,14.6-13.1,14.6h-12.5v-28.9ZM512.4,124h5.7c3.7,0,7.2-2.3,7.2-8.7s-2.1-9.6-8.3-9.6h-4.5v18.2Z"/>
    <path class="st1" d="M540.2,120.3c.2,3.7,1.9,5.3,5.1,5.3s4.2-1.4,4.5-2.7h5.1c-1.6,5-5.1,7-9.8,7s-10.7-4.5-10.7-11,4.3-11.1,10.7-11.1,10.6,6,10.2,12.4h-15.1ZM549.5,116.6c-.5-2.9-1.8-4.5-4.6-4.5s-4.7,2.8-4.8,4.5h9.4Z"/>
    <path class="st1" d="M563.1,122.5c0,2.5,2.2,3.5,4.4,3.5s3.8-.6,3.8-2.7-2.4-2.4-6.5-3.2c-3.4-.8-6.6-1.9-6.6-5.6,0-5.3,4.6-6.7,9.1-6.7s8.8,1.5,9.2,6.7h-5.5c-.2-2.2-1.9-2.8-3.9-2.8s-3.2.2-3.2,1.9,3.3,2.3,6.5,3.1c3.4.8,6.6,2,6.6,5.9,0,5.5-4.8,7.3-9.6,7.3s-9.6-1.8-9.8-7.4h5.5Z"/>
    <path class="st1" d="M580.2,114.8c.3-5.3,5.1-7,9.8-7s9.2.9,9.2,6v10.9c0,1.9.2,3.8.7,4.7h-5.8c-.2-.6-.4-1.3-.4-2-1.8,1.9-4.5,2.6-7,2.6-4,0-7.1-2-7.1-6.3,0-9.5,14.2-4.4,13.9-9.1,0-2.4-1.7-2.8-3.7-2.8s-3.6.9-3.8,3.2h-5.8ZM593.5,119.1c-1,.9-3,.9-4.8,1.2-1.8.3-3.4,1-3.4,3.1s1.7,2.7,3.5,2.7c4.5,0,4.7-3.5,4.7-4.8v-2.1Z"/>
    <path class="st1" d="M603.7,108.4h5.5v3.9h0c1.1-2.6,3.8-4.5,6.7-4.5s.9,0,1.3.2v5.3c-.5-.1-1.4-.2-2.1-.2-4.3,0-5.7,3-5.7,6.7v9.4h-5.8v-20.9Z"/>
    <path class="st1" d="M619.4,108.4h5.5v3.9h0c1.1-2.6,3.8-4.5,6.7-4.5s.9,0,1.3.2v5.3c-.5-.1-1.4-.2-2.1-.2-4.3,0-5.7,3-5.7,6.7v9.4h-5.8v-20.9Z"/>
    <path class="st1" d="M645.4,107.8c6.6,0,10.9,4.4,10.9,11.1s-4.3,11-10.9,11-10.8-4.4-10.8-11,4.3-11.1,10.8-11.1ZM645.4,125.6c3.9,0,5.1-3.3,5.1-6.7s-1.2-6.7-5.1-6.7-5.1,3.4-5.1,6.7,1.2,6.7,5.1,6.7Z"/>
    <path class="st1" d="M660.1,100.4h5.8v28.9h-5.8v-28.9Z"/>
    <path class="st1" d="M670.5,100.4h5.8v28.9h-5.8v-28.9Z"/>
    <path class="st1" d="M691,107.8c6.6,0,10.9,4.4,10.9,11.1s-4.3,11-10.9,11-10.8-4.4-10.8-11,4.3-11.1,10.8-11.1ZM691,125.6c3.9,0,5.1-3.3,5.1-6.7s-1.2-6.7-5.1-6.7-5.1,3.4-5.1,6.7,1.2,6.7,5.1,6.7Z"/>
  </g>
  <g>
    <path class="st0" d="M31,152.5l7.3,1.3c-1.1,2.4-3,4.1-5.6,5.3-2.6,1.1-5.9,1.7-9.9,1.7s-9-1-12.2-2.9c-3.2-2-4.8-4.7-4.8-8.1s1.6-6.4,4.8-8.4c3.2-2,7.4-3,12.6-3s8.3.8,11.1,2.3c1.7.9,3,2.3,3.8,4l-7.4,1c-.4-1.1-1.4-2-2.8-2.7-1.4-.6-3.1-1-5.1-1s-5,.6-6.7,1.7c-1.7,1.2-2.6,3-2.6,5.6s.8,4.7,2.5,5.9c1.7,1.2,3.9,1.7,6.6,1.7s3.7-.4,5.2-1.1c1.4-.7,2.5-1.9,3.1-3.5M44.5,138.8h7.5v21.7h-7.5v-21.7ZM92.8,160.5h-8.2l-3.2-4.9h-14.9l-3.1,4.9h-8l14.5-21.7h7.9l14.9,21.7ZM78.9,151.9l-5.1-8-5,8h10.2ZM96.7,138.8h13.7c3.1,0,5.5.1,7.1.4,2.2.4,4.1,1,5.6,2,1.6,1,2.7,2.1,3.6,3.5.8,1.4,1.2,3.1,1.2,5.1s-.4,3.3-1.1,4.6c-.9,1.6-2.3,2.8-4,3.8-1.3.7-3.1,1.3-5.3,1.7-1.7.3-3.9.5-6.7.5h-14.1v-21.7ZM104.3,142.5v14.3h5.6c2.1,0,3.6,0,4.6-.2,1.2-.2,2.2-.5,3-.9.8-.4,1.5-1.1,2-2.1.5-1,.8-2.3.8-4s-.3-3-.8-3.9c-.5-.9-1.2-1.6-2.1-2.1-.9-.5-2.1-.8-3.5-1-1-.1-3.1-.2-6.2-.2h-3.4Z"/>
    <path class="st0" d="M125.4,7.9s0,0,0,0c0,0-.1,0-.2,0-.7-.3-1.5-.4-2.4-.4h-49.5c0,0,0,17.2,0,17.2h33.2v83.4h-12l-11.5-12.8h-31.8l-11.8,12.8h-12V24.5h33.4V7.2H11c-2.8,0-5,2.2-5.2,4.9v112c0,.2,0,.4,0,.7.2,2.2,1.8,4,3.9,4.5.3,0,.6,0,.9,0h28.5l11.8-13.1h31.8l11.5,13.1h28.6c1.1,0,2-.3,2.7-.7.5-.3.9-.6,1.2-1,0,0,0,0,0-.1,0,0,0,0,0,0,.8-1,1.2-2.4,1.2-3.4V13.5c0-.7,0-2.5-.9-4-.5-.7-1.1-1.2-1.8-1.6Z"/>
    <rect class="st2" x="51.1" y="74.3" width="31.8" height="13.3"/>
  </g>
</svg>