<?xml version="1.0" encoding="UTF-8"?>
<svg id="Capa_3" xmlns="http://www.w3.org/2000/svg" version="1.1" viewBox="0 0 257.5 321.3">
  <!-- Generator: Adobe Illustrator 29.0.0, SVG Export Plug-In . SVG Version: 2.1.0 Build 186)  -->
  <defs>
    <style>
      .st0 {
        fill: #6d3628;
      }
    </style>
  </defs>
  <path class="st0" d="M56.4,298.5l14.7,2.7c-2.3,4.8-6,8.3-11.2,10.6-5.2,2.3-11.9,3.5-19.9,3.5s-18.1-2-24.5-5.9c-6.4-4-9.6-9.4-9.6-16.2s3.2-12.9,9.7-16.9c6.4-4,14.9-6,25.4-6s16.6,1.6,22.3,4.7c3.4,1.9,6,4.5,7.7,8l-15,2.1c-.9-2.3-2.7-4-5.5-5.4-2.8-1.3-6.2-2-10.2-2s-10.1,1.2-13.5,3.5c-3.5,2.3-5.2,6.1-5.2,11.3s1.7,9.4,5.1,11.8c3.4,2.3,7.8,3.5,13.3,3.5s7.5-.7,10.4-2.2c2.9-1.5,5-3.8,6.2-7M83.6,270.9h15.1v43.6h-15.1v-43.6ZM180.7,314.5h-16.5l-6.5-9.9h-30l-6.2,9.9h-16l29.2-43.6h16l30,43.6ZM152.8,297.3l-10.3-16.2-10.1,16.2h20.4ZM188.6,270.9h27.6c6.2,0,11,.3,14.3.8,4.4.7,8.2,2.1,11.3,4,3.1,1.9,5.5,4.3,7.2,7.1,1.6,2.8,2.4,6.2,2.4,10.3s-.8,6.7-2.3,9.3c-1.9,3.2-4.5,5.7-8,7.7-2.6,1.5-6.2,2.6-10.6,3.5-3.3.6-7.8.9-13.4.9h-28.5v-43.6ZM203.8,278.3v28.9h11.3c4.2,0,7.3-.1,9.2-.4,2.4-.4,4.5-1,6.1-1.8,1.6-.8,2.9-2.3,4-4.2,1-1.9,1.5-4.6,1.5-8s-.5-5.9-1.5-7.8c-1-1.8-2.5-3.2-4.3-4.2-1.8-1-4.2-1.7-7-2.1-2.1-.3-6.2-.4-12.4-.4h-6.8Z"/>
  <path class="st0" d="M246.3,7.3s0,0,0,0c-.1,0-.3-.1-.4-.2-1.3-.6-2.9-.9-4.9-.9l-99.6-.2v34.9h66.8v167.8h-24.2l-23.2-25.8h-63.9l-23.8,25.8h-24.2V40.9h67.3V6.1H16.2c-5.6,0-10.2,4.4-10.4,9.9v225.3c0,.4,0,.9,0,1.4.5,4.4,3.7,8,7.8,9,.6,0,1.2.1,1.9.1h57.3l23.8-26.4h63.9l23.2,26.5h57.6c2.2,0,3.9-.5,5.4-1.4.9-.6,1.7-1.3,2.4-2.1,0,0,.1-.1.2-.2,0,0,0,0,0,0,1.6-2.1,2.3-4.7,2.3-6.9V18.7c0-1.4,0-5.1-1.9-8.1-.9-1.3-2.2-2.5-3.6-3.2Z"/>
  <rect class="st0" x="96.7" y="141" width="63.9" height="26.8"/>
</svg>